<?xml version="1.0" encoding="UTF-8"?>
<svg id="Calque_1" xmlns="http://www.w3.org/2000/svg" version="1.1" viewBox="0 0 500 500">
  <!-- Generator: Adobe Illustrator 29.0.1, SVG Export Plug-In . SVG Version: 2.1.0 Build 192)  -->
  <defs>
    <style>
      .st0 {
        fill: #0d0d0d;
      }

      .st1 {
        stroke: #f2f2f2;
        stroke-width: 10px;
      }

      .st1, .st2 {
        fill: none;
        stroke-linecap: round;
        stroke-miterlimit: 10;
      }

      .st3 {
        fill: #f23005;
      }

      .st4 {
        fill: #fffef8;
      }

      .st2 {
        stroke: #fffef8;
        stroke-width: 15px;
      }
    </style>
  </defs>
  <circle class="st3" cx="250.2" cy="250.47" r="243.31"/>
  <circle class="st0" cx="249.65" cy="250.06" r="91.05"/>
  <path class="st4" d="M137.33,63.82s52.04-24.39,104.93-26.01c52.89-1.61,96.29,12.2,110.1,20.09,13.81,7.89,0,8.32,0,8.32,0,0-55.24-6.35-78.91,3.52-9.86,3.95,0,5.92,0,5.92,0,0,27.62,7.89,39.46,15.78,11.84,7.89-7.89,9.86-7.89,9.86,0,0-25.65,1.97-37.48,9.86-3.95,3.95,3.95,5.92,3.95,5.92,0,0,13.81,1.97,23.67,9.86,9.86,7.89-5.92,9.86-7.89,7.89s-35.51-11.84-65.1-1.97c-15.78,3.95-11.84-7.89-7.89-11.84,3.95-3.95,18.74-14.8,18.74-14.8,0,0,9.86-5.92-1.97-5.92s-25.65-1.97-47.35,3.95c-11.84,3.95-11.84-1.97-7.89-5.92,3.95-3.95,19.73-17.76,29.59-21.7,9.86-3.95,9.86-7.89,5.92-7.89s-31.56-3.95-67.07,3.95c-11.84,1.97-15.78-1.97-6.9-8.88Z"/>
  <path class="st4" d="M364.05,440.25s-52.04,24.39-104.93,26.01c-52.89,1.61-96.29-12.2-110.1-20.09-13.81-7.89,0-8.32,0-8.32,0,0,55.24,6.35,78.91-3.52,9.86-3.95,0-5.92,0-5.92,0,0-27.62-7.89-39.46-15.78-11.84-7.89,7.89-9.86,7.89-9.86,0,0,25.65-1.97,37.48-9.86,3.95-3.95-3.95-5.92-3.95-5.92,0,0-13.81-1.97-23.67-9.86-9.86-7.89,5.92-9.86,7.89-7.89,1.97,1.97,35.51,11.84,65.1,1.97,15.78-3.95,11.84,7.89,7.89,11.84-3.95,3.95-18.74,14.8-18.74,14.8,0,0-9.86,5.92,1.97,5.92s25.65,1.97,47.35-3.95c11.84-3.95,11.84,1.97,7.89,5.92s-19.73,17.76-29.59,21.7c-9.86,3.95-9.86,7.89-5.92,7.89s31.56,3.95,67.07-3.95c11.84-1.97,15.78,1.97,6.9,8.88Z"/>
  <path class="st1" d="M259.7,267.48s-5.82,7.61-14.55,10.21c-8.73,2.6-4.66,14.83,7.28,13.37s14.26-7.28,14.26-7.28"/>
  <path class="st4" d="M231.33,263.92c-9.5,1.13-18.02-6.02-19.43-15.49-1.53-10.27-4.02-26.94-5.55-37.2-1.41-9.46,4.65-18.79,14.07-20.49,9.74-1.75,18.94,4.89,20.39,14.62l1.9,12.76-12.78,6.83c-1.07.57-.72,2.19.49,2.27l13.79.91,2.37,15.86c1.45,9.72-5.4,18.76-15.24,19.93Z"/>
  <path class="st4" d="M280.13,259.04c-9.5,1.13-18.02-6.02-19.43-15.49-1.53-10.27-4.02-26.94-5.55-37.2-1.41-9.46,4.65-18.79,14.07-20.49,9.74-1.75,18.94,4.89,20.39,14.62l1.9,12.76-12.78,6.83c-1.07.57-.72,2.19.49,2.27l13.79.91,2.37,15.86c1.45,9.72-5.4,18.76-15.24,19.93Z"/>
  <path class="st2" d="M305.75,284.74c-10.82,19.45-31.58,32.62-55.41,32.62s-42.48-11.86-53.69-29.71"/>
</svg>