<?xml version="1.0" encoding="UTF-8"?>
<svg xmlns="http://www.w3.org/2000/svg" version="1.1" viewBox="0 0 497 499.3">
  <defs>
    <style>
      .cls-1 {
        fill: #0d0d0d;
      }

      .cls-2 {
        stroke: #f2f2f2;
        stroke-width: 10px;
      }

      .cls-2, .cls-3 {
        fill: none;
        stroke-linecap: round;
        stroke-miterlimit: 10;
      }

      .cls-4 {
        fill: #f23005;
      }

      .cls-5 {
        fill: #fffef8;
      }

      .cls-3 {
        stroke: #fffef8;
        stroke-width: 15px;
      }
    </style>
  </defs>
  <!-- Generator: Adobe Illustrator 28.7.2, SVG Export Plug-In . SVG Version: 1.2.0 Build 154)  -->
  <g>
    <g id="Calque_1">
      <g>
        <g>
          <path class="cls-5" d="M248.5,497.2c-65,0-126-25.3-172-71.2S5.3,318.9,5.3,254,30.6,128,76.6,82C122.5,36.1,183.6,10.8,248.5,10.8s126,25.3,172,71.2c45.9,45.9,71.2,107,71.2,172s-25.3,126-71.2,171.9c-45.9,45.9-107,71.2-172,71.2h0Z"/>
          <path d="M248.5,10.9c32.8,0,64.6,6.4,94.6,19.1,28.9,12.2,54.9,29.8,77.3,52.1,22.3,22.3,39.8,48.3,52.1,77.3,12.7,30,19.1,61.8,19.1,94.6s-6.4,64.6-19.1,94.6c-12.2,28.9-29.8,54.9-52.1,77.3-22.3,22.3-48.3,39.8-77.3,52.1-30,12.7-61.8,19.1-94.6,19.1s-64.6-6.4-94.6-19.1c-28.9-12.2-54.9-29.8-77.3-52.1-22.3-22.3-39.8-48.3-52.1-77.3-12.7-30-19.1-61.8-19.1-94.6s6.4-64.6,19.1-94.6c12.2-28.9,29.8-54.9,52.1-77.3s48.3-39.8,77.3-52.1c30-12.7,61.8-19.1,94.6-19.1M248.5,10.7C114.2,10.7,5.2,119.6,5.2,254s108.9,243.3,243.3,243.3,243.3-108.9,243.3-243.3S382.9,10.7,248.5,10.7h0Z"/>
        </g>
        <circle class="cls-1" cx="248" cy="253.6" r="91"/>
        <path class="cls-4" d="M135.7,67.3s52-24.4,104.9-26c52.9-1.6,96.3,12.2,110.1,20.1s0,8.3,0,8.3c0,0-55.2-6.3-78.9,3.5-9.9,4,0,5.9,0,5.9,0,0,27.6,7.9,39.5,15.8,11.8,7.9-7.9,9.9-7.9,9.9,0,0-25.7,2-37.5,9.9-4,4,4,5.9,4,5.9,0,0,13.8,2,23.7,9.9,9.9,7.9-5.9,9.9-7.9,7.9s-35.5-11.8-65.1-2c-15.8,4-11.8-7.9-7.9-11.8,4-4,18.7-14.8,18.7-14.8,0,0,9.9-5.9-2-5.9s-25.7-2-47.3,4c-11.8,4-11.8-2-7.9-5.9s19.7-17.8,29.6-21.7c9.9-3.9,9.9-7.9,5.9-7.9s-31.6-4-67.1,4c-11.8,2-15.8-2-6.9-8.9h0Z"/>
        <path class="cls-4" d="M362.4,443.8s-52,24.4-104.9,26c-52.9,1.6-96.3-12.2-110.1-20.1s0-8.3,0-8.3c0,0,55.2,6.4,78.9-3.5,9.9-3.9,0-5.9,0-5.9,0,0-27.6-7.9-39.5-15.8s7.9-9.9,7.9-9.9c0,0,25.7-2,37.5-9.9,4-3.9-4-5.9-4-5.9,0,0-13.8-2-23.7-9.9s5.9-9.9,7.9-7.9c2,2,35.5,11.8,65.1,2,15.8-3.9,11.8,7.9,7.9,11.8s-18.7,14.8-18.7,14.8c0,0-9.9,5.9,2,5.9s25.7,2,47.3-3.9c11.8-3.9,11.8,2,7.9,5.9s-19.7,17.8-29.6,21.7c-9.9,3.9-9.9,7.9-5.9,7.9s31.6,3.9,67.1-3.9c11.8-2,15.8,2,6.9,8.9h0Z"/>
        <path class="cls-2" d="M258,271s-5.8,7.6-14.5,10.2-4.7,14.8,7.3,13.4c11.9-1.5,14.3-7.3,14.3-7.3"/>
        <path class="cls-5" d="M229.7,267.4c-9.5,1.1-18-6-19.4-15.5-1.5-10.3-4-26.9-5.5-37.2-1.4-9.5,4.7-18.8,14.1-20.5,9.7-1.8,18.9,4.9,20.4,14.6l1.9,12.8-12.8,6.8c-1.1.6-.7,2.2.5,2.3l13.8.9,2.4,15.9c1.5,9.7-5.4,18.8-15.2,19.9h0Z"/>
        <path class="cls-5" d="M278.5,262.5c-9.5,1.1-18-6-19.4-15.5-1.5-10.3-4-26.9-5.5-37.2-1.4-9.5,4.7-18.8,14.1-20.5,9.7-1.8,18.9,4.9,20.4,14.6l1.9,12.8-12.8,6.8c-1.1.6-.7,2.2.5,2.3l13.8.9,2.4,15.9c1.5,9.7-5.4,18.8-15.2,19.9h0Z"/>
        <path class="cls-3" d="M304.1,288.2c-10.8,19.5-31.6,32.6-55.4,32.6s-42.5-11.9-53.7-29.7"/>
      </g>
    </g>
  </g>
</svg>